<svg version="1.1" id="Layer_1" xmlns="http://www.w3.org/2000/svg" xmlns:xlink="http://www.w3.org/1999/xlink" x="0px" y="0px"
	 width="100%" viewBox="0 0 71 83" enable-background="new 0 0 71 83" xml:space="preserve">
<path fill="#38C5E5" opacity="1.000000" stroke="none" 
	d="
M1.000000,75.000000 
	C1.000000,50.333332 1.000000,25.666666 1.000000,1.000000 
	C23.666666,1.000000 46.333359,0.987287 68.999931,1.033711 
	C70.269363,1.036311 72.612228,-0.085014 71.646255,3.805694 
	C67.850868,5.119534 64.409218,5.627678 60.649815,5.985807 
	C59.504444,5.160895 58.676826,4.486000 57.732956,3.716298 
	C56.681324,5.665285 55.796741,7.304676 54.471031,8.954581 
	C51.073765,9.327765 48.117630,9.690435 45.092598,10.491798 
	C45.023697,13.203990 45.023697,15.477489 45.023697,17.999786 
	C43.098778,17.999786 41.639908,17.999786 39.963230,17.609333 
	C35.416111,17.518593 31.086794,17.818302 26.445873,18.279799 
	C25.388037,20.950548 24.641809,23.459509 23.592649,26.112108 
	C23.176868,27.132694 23.064018,28.009642 22.628288,29.029686 
	C21.833639,30.437479 21.361874,31.702177 20.647419,33.044609 
	C20.318686,33.423409 20.232635,33.724476 19.979959,34.341908 
	C18.926651,36.781799 18.039968,38.905331 16.980839,41.348869 
	C15.856966,44.091614 14.905541,46.514351 13.623344,49.056801 
	C12.583956,50.810181 11.875340,52.443848 11.081232,54.425468 
	C10.381130,56.516506 9.766521,58.259590 9.013842,60.307980 
	C8.295817,61.758759 7.715865,62.904236 7.067060,64.420952 
	C6.163528,66.867722 5.524024,69.053757 4.431520,70.983315 
	C3.579796,72.487602 2.164723,73.672928 1.000000,75.000000 
z"/>
<path fill="#38C5E5" opacity="1.000000" stroke="none" 
	C72.000000,31.999992 72.000000,57.999985 72.000000,83.999985 
	C49.333347,84.000000 26.666670,84.012718 4.000113,83.966293 
	C2.730676,83.963692 0.387777,85.085060 1.467791,81.498352 
	C6.370986,80.996315 10.827760,81.237976 15.228881,80.849358 
	C16.564598,80.731415 18.222223,79.113670 18.907181,77.764046 
	C20.747301,74.138367 20.689463,68.829483 27.466614,69.898163 
	C32.278095,69.922974 36.629841,69.878914 41.410896,69.912491 
	C43.870682,70.033188 45.901157,70.076256 47.965302,70.493088 
	C48.935371,73.089111 49.843704,75.323799 50.819847,77.528458 
	C51.318363,78.654381 51.896301,80.650337 52.510197,80.678360 
	C57.959263,80.926994 63.424427,80.822906 69.623634,80.822906 
	C67.317276,75.316681 65.581161,71.171883 63.826141,66.685181 
	C62.895443,64.852180 61.983658,63.361076 61.052368,61.516098 
	C60.384079,59.763847 59.735294,58.365475 59.049133,56.621155 
	C58.682583,55.495285 58.353409,54.715366 58.014687,53.966042 
	C58.005138,53.996635 58.065899,53.976208 58.011597,53.722374 
	C57.915363,53.300652 57.873432,53.132759 57.916218,52.609215 
	C56.935314,50.884216 55.869698,49.514866 54.830978,47.775368 
	C54.272869,45.911621 53.687862,44.418018 53.074081,42.563812 
	C52.319248,40.535793 51.593182,38.868385 50.954956,36.874413 
	C51.700035,36.062561 52.357273,35.577271 53.344036,34.901543 
	C53.726231,33.465611 53.778900,32.220112 53.893402,30.590252 
	C53.984863,29.168320 54.014500,28.130743 54.469662,27.049351 
	C56.679787,27.003317 58.543484,27.301634 60.213005,26.862221 
	C60.960476,26.665489 61.318634,24.989576 61.915810,23.626427 
	C60.933990,21.816479 59.889832,20.365030 58.906376,18.581856 
	C59.059311,17.815681 59.151539,17.381233 59.602711,16.984676 
	C61.352303,16.367250 62.742950,15.711933 64.351730,15.023909 
	C64.569862,14.991202 64.990433,14.858033 65.296082,14.880360 
	C66.017792,14.265845 66.433846,13.629004 66.982735,12.680610 
	C67.781036,11.257216 68.446510,10.145375 69.405060,8.905201 
	C70.081955,7.837764 70.465767,6.898660 71.145630,5.729311 
	C71.627800,5.666046 71.813904,5.833023 72.000000,6.000000 
z"/>
<path fill="#38C5E5" opacity="1.000000" stroke="none" 
	d="
M27.006878,69.829285 
	C20.689463,68.829483 20.747301,74.138367 18.907181,77.764046 
	C18.222223,79.113670 16.564598,80.731415 15.228881,80.849358 
	C10.827760,81.237976 6.370986,80.996315 1.467791,80.998352 
	C1.000000,79.285645 1.000000,77.571281 1.000000,75.428467 
	C2.164723,73.672928 3.579796,72.487602 4.431520,70.983315 
	C5.524024,69.053757 6.163528,66.867722 7.367711,64.411552 
	C8.138261,64.027100 8.539307,64.023285 8.968649,64.383453 
	C10.002953,66.141174 11.008960,67.534920 12.457133,68.952446 
	C15.265550,68.972244 17.631800,68.968254 20.435301,68.979126 
	C22.913525,69.002312 24.954498,69.010643 26.997849,69.221558 
	C27.000227,69.424141 27.006878,69.829285 27.006878,69.829285 
z"/>
<path fill="#4AC2E3" opacity="1.000000" stroke="none" 
	d="
M69.111977,9.033533 
	C68.446510,10.145375 67.781036,11.257216 66.687408,12.724593 
	C65.836311,13.672764 65.413376,14.265399 64.990433,14.858034 
	C64.990433,14.858033 64.569862,14.991202 64.045914,14.875830 
	C63.001686,13.811985 62.481411,12.863512 61.954681,11.586850 
	C61.621342,9.551048 61.294456,7.843435 60.967575,6.135823 
	C64.409218,5.627678 67.850868,5.119534 71.646255,4.305695 
	C72.000000,4.444445 72.000000,4.888889 72.000000,5.666667 
	C71.813904,5.833023 71.627800,5.666046 70.786362,5.739357 
	C68.518272,6.770399 66.905510,7.561152 65.292747,8.351905 
	C65.454826,8.634135 65.616905,8.916365 65.778976,9.198595 
	C66.889977,9.143574 68.000977,9.088553 69.111977,9.033533 
z"/>
<path fill="#F4F9F5" opacity="1.000000" stroke="none" 
	d="
M54.804081,48.145515 
	C55.869698,49.514866 56.935314,50.884216 57.464035,52.642471 
	C52.132118,52.791210 47.337093,52.551048 42.542068,52.310886 
	C42.467827,51.781921 42.393585,51.252956 42.319347,50.723988 
	C41.414169,53.167797 40.508987,55.611607 39.434380,58.301628 
	C38.815975,59.688351 38.366997,60.828865 37.616158,61.970890 
	C36.912205,61.970886 36.510113,61.969372 36.079815,61.624138 
	C35.771938,60.437870 35.492268,59.595329 35.188957,58.423096 
	C34.862194,57.294945 34.559071,56.496483 34.218361,55.350445 
	C33.991756,54.335720 33.802738,53.668571 33.538765,52.659096 
	C32.656017,49.967300 31.848227,47.617836 30.615643,44.032867 
	C29.384588,47.936089 28.595402,50.438297 27.398109,52.998917 
	C21.715578,53.397385 16.441151,53.737450 11.166725,54.077515 
	C11.875340,52.443848 12.583956,50.810181 13.724171,49.449356 
	C21.807421,52.804459 25.387262,51.316574 27.748550,43.875916 
	C28.554955,41.736202 29.186621,39.865849 29.924965,37.768837 
	C30.033020,37.375172 30.034397,37.208172 30.342285,36.974976 
	C31.064054,36.949905 31.479311,36.991032 31.899574,37.396240 
	C32.490238,39.548061 33.075893,41.335808 33.749058,43.498543 
	C34.954586,47.279350 36.072609,50.685165 37.531063,55.128025 
	C39.330410,50.654835 40.666569,47.333130 42.353252,43.989758 
	C43.556671,45.313904 44.409565,46.659721 45.299332,48.219490 
	C45.478146,48.705986 45.695690,48.888496 46.070705,49.223679 
	C46.434952,49.628197 46.717331,49.789997 47.397758,50.013760 
	C50.131897,49.432320 52.467991,48.788918 54.804081,48.145515 
z"/>
<path fill="#D5DF2C" opacity="1.000000" stroke="none" 
	d="
M58.845669,18.913582 
	C59.889832,20.365030 60.933990,21.816479 61.493362,23.632938 
	C52.992886,23.329035 44.977196,22.660122 36.895111,21.609343 
	C37.946152,20.151581 39.063595,19.075684 40.181034,17.999786 
	C41.639908,17.999786 43.098778,17.999786 45.023697,17.999786 
	C45.023697,15.477489 45.023697,13.203990 45.532417,10.493427 
	C48.309010,10.056365 50.576889,10.056365 52.756310,10.056365 
	C53.736725,18.633181 53.736725,18.633181 58.845669,18.913582 
z"/>
<path fill="#ADD335" opacity="1.000000" stroke="none" 
	d="
M31.894569,37.032158 
	C31.479311,36.991032 31.064054,36.949905 30.170574,36.654598 
	C26.758268,35.255901 23.824186,34.111385 20.890106,32.966873 
	C21.361874,31.702177 21.833639,30.437479 22.909075,29.335062 
	C25.425653,29.664850 27.344084,29.785587 29.250225,30.010469 
	C32.360630,30.377432 33.319401,28.802931 33.018951,25.718250 
	C33.306633,24.967894 33.576584,24.498905 33.911240,24.461189 
	C33.150631,32.033829 39.502304,27.510712 41.956303,29.877190 
	C41.956303,31.769712 41.956303,33.875923 41.517624,35.988037 
	C38.017487,36.340012 34.956028,36.686085 31.894569,37.032158 
z"/>
<path fill="#36A9D6" opacity="1.000000" stroke="none" 
	d="
M11.081232,54.425468 
	C16.441151,53.737450 21.715578,53.397385 27.816669,53.015839 
	C30.300131,52.983379 31.956928,52.992401 33.613724,53.001423 
	C33.802738,53.668571 33.991756,54.335720 33.962646,55.663204 
	C25.546986,57.549919 17.349449,58.776299 9.151913,60.002678 
	C9.766521,58.259590 10.381130,56.516506 11.081232,54.425468 
z"/>
<path fill="#46BDE0" opacity="1.000000" stroke="none" 
	d="
M9.013842,60.307980 
	C17.349449,58.776299 25.546986,57.549919 34.000237,56.010780 
	C34.559071,56.496483 34.862194,57.294945 34.994617,58.751022 
	C30.766930,61.933937 26.760284,63.849400 21.550671,63.184029 
	C17.449697,62.660252 13.151144,63.683434 8.940352,64.019478 
	C8.539307,64.023285 8.138261,64.027100 7.436563,64.040314 
	C7.715865,62.904236 8.295817,61.758759 9.013842,60.307980 
z"/>
<path fill="#F6FAF0" opacity="1.000000" stroke="none" 
	d="
M41.956303,35.982136 
	C41.956303,33.875923 41.956303,31.769712 41.956303,29.877190 
	C39.502304,27.510712 33.150631,32.033829 33.977211,24.024035 
	C33.978474,21.587240 33.978474,20.018871 33.978474,18.118011 
	C31.231632,18.118011 28.994555,18.118011 26.757479,18.118011 
	C31.086794,17.818302 35.416111,17.518593 39.963230,17.609333 
	C39.063595,19.075684 37.946152,20.151581 36.819805,22.005558 
	C36.892685,23.846167 36.974468,24.908695 37.314060,26.273964 
	C39.976353,27.984943 44.726101,24.244568 45.085403,30.455690 
	C45.087090,32.151150 45.142883,33.414780 45.216934,35.091984 
	C48.072243,35.091984 50.543377,35.091984 53.014511,35.091980 
	C52.357273,35.577271 51.700035,36.062561 50.518227,36.887333 
	C47.369411,37.072624 44.745167,36.918434 42.107826,36.562813 
	C42.094738,36.361378 41.956303,35.982136 41.956303,35.982136 
z"/>
<path fill="#8AC94A" opacity="1.000000" stroke="none" 
	d="
M27.573816,44.145275 
	C25.387262,51.316574 21.807421,52.804459 14.054943,49.329643 
	C14.905541,46.514351 15.856966,44.091614 17.234169,41.620476 
	C18.849888,42.382957 19.948156,43.630520 21.250906,43.903984 
	C23.285761,44.331139 25.459131,44.098419 27.573816,44.145275 
z"/>
<path fill="#93CB39" opacity="1.000000" stroke="none" 
	d="
M27.748550,43.875916 
	C25.459131,44.098419 23.285761,44.331139 21.250906,43.903984 
	C19.948156,43.630520 18.849888,42.382957 17.406618,41.300468 
	C18.039968,38.905331 18.926651,36.781799 20.221519,34.593700 
	C22.531673,38.761856 26.376713,37.843929 29.818287,37.995495 
	C29.186621,39.865849 28.554955,41.736202 27.748550,43.875916 
z"/>
<path fill="#C4D830" opacity="1.000000" stroke="none" 
	d="
M26.445873,18.279799 
	C28.994555,18.118011 31.231632,18.118011 33.978474,18.118011 
	C33.978474,20.018871 33.978474,21.587240 33.912506,23.592766 
	C33.576584,24.498905 33.306633,24.967894 32.565228,25.718107 
	C29.361042,25.989046 26.628311,25.978758 23.895580,25.968472 
	C24.641809,23.459509 25.388037,20.950548 26.445873,18.279799 
z"/>
<path fill="#DAE13A" opacity="1.000000" stroke="none" 
	d="
M60.649818,5.985807 
	C61.294456,7.843435 61.621342,9.551048 61.675125,11.738726 
	C60.584484,13.419249 59.766945,14.619708 58.567593,15.890591 
	C53.644726,15.231488 55.597931,11.472197 54.912163,8.944067 
	C55.796741,7.304676 56.681324,5.665285 57.732956,3.716298 
	C58.676826,4.486000 59.504444,5.160895 60.649818,5.985807 
z"/>
<path fill="#F4F6D3" opacity="1.000000" stroke="none" 
	d="
M54.471031,8.954581 
	C55.597931,11.472197 53.644726,15.231488 58.641998,16.172514 
	C59.146732,16.571604 59.195248,16.759193 59.243767,16.946785 
	C59.151539,17.381233 59.059311,17.815681 58.906376,18.581856 
	C53.736725,18.633181 53.736725,18.633181 52.756310,10.056365 
	C50.576889,10.056365 48.309010,10.056365 45.601315,10.054735 
	C48.117630,9.690435 51.073765,9.327765 54.471031,8.954581 
z"/>
<path fill="#B7D52D" opacity="1.000000" stroke="none" 
	d="
M23.592649,26.112108 
	C26.628311,25.978758 29.361042,25.989046 32.547497,25.999477 
	C33.319401,28.802931 32.360630,30.377432 29.250225,30.010469 
	C27.344084,29.785587 25.425653,29.664850 23.231956,29.191967 
	C23.064018,28.009642 23.176868,27.132694 23.592649,26.112108 
z"/>
<path fill="#A2CF34" opacity="1.000000" stroke="none" 
	d="
M29.924965,37.768837 
	C26.376713,37.843929 22.531673,38.761856 20.388145,34.277336 
	C20.232635,33.724476 20.318686,33.423409 20.647419,33.044609 
	C23.824186,34.111385 26.758268,35.255901 29.864063,36.720791 
	C30.034397,37.208172 30.033020,37.375172 29.924965,37.768837 
z"/>
<path fill="#38C4E5" opacity="1.000000" stroke="none" 
	d="
M63.845055,67.027077 
	C65.581161,71.171883 67.317276,75.316681 69.623634,80.822906 
	C63.424427,80.822906 57.959263,80.926994 52.510197,80.678360 
	C51.896301,80.650337 51.318363,78.654381 50.819847,77.528458 
	C49.843704,75.323799 48.935371,73.089111 48.253807,70.183212 
	C51.580559,69.332771 54.681030,69.365204 57.714558,68.930496 
	C59.806030,68.630783 61.804836,67.684441 63.845055,67.027077 
z"/>
<path fill="#2FABD8" opacity="1.000000" stroke="none" 
	d="
M59.086510,56.967102 
	C59.735294,58.365475 60.384079,59.763847 60.941940,61.914818 
	C55.924408,63.103077 51.003029,63.665150 46.066845,63.869499 
	C45.059761,63.911190 43.997040,62.608818 43.113033,61.647556 
	C44.482903,59.910324 45.699703,58.451557 47.214828,56.771687 
	C50.156422,52.108513 54.533768,54.774693 58.065899,53.976208 
	C58.065899,53.976208 58.005138,53.996635 58.010307,54.315540 
	C58.372490,55.411999 58.729500,56.189548 59.086510,56.967102 
z"/>
<path fill="#33BCE0" opacity="1.000000" stroke="none" 
	d="
M42.959969,61.926025 
	C43.997040,62.608818 45.059761,63.911190 46.066845,63.869499 
	C51.003029,63.665150 55.924408,63.103077 60.961445,62.268692 
	C61.983658,63.361076 62.895443,64.852180 63.826141,66.685181 
	C61.804836,67.684441 59.806030,68.630783 57.714558,68.930496 
	C54.681030,69.365204 51.580559,69.332771 48.220139,69.809448 
	C45.901157,70.076256 43.870682,70.033188 41.416138,69.532791 
	C40.662342,67.384239 40.332603,65.693016 40.117901,63.743614 
	C40.542507,63.013004 40.852077,62.540565 41.461296,62.050938 
	C42.160622,61.997841 42.560295,61.961937 42.959969,61.926025 
z"/>
<path fill="#C1D931" opacity="1.000000" stroke="none" 
	d="
M37.056252,25.971222 
	C36.974468,24.908695 36.892685,23.846167 36.886208,22.387424 
	C44.977196,22.660122 52.992886,23.329035 61.431019,23.991438 
	C61.318634,24.989576 60.960476,26.665489 60.213005,26.862221 
	C58.543484,27.301634 56.679787,27.003317 54.179897,26.742287 
	C47.995152,26.309765 42.525703,26.140493 37.056252,25.971222 
z"/>
<path fill="#B0DA67" opacity="1.000000" stroke="none" 
	d="
M42.120918,36.764244 
	C44.745167,36.918434 47.369411,37.072624 50.430389,37.213894 
	C51.593182,38.868385 52.319248,40.535793 52.695499,42.582138 
	C48.290035,43.552589 47.268070,46.464043 46.999714,49.951797 
	C46.717331,49.789997 46.434952,49.628197 46.009827,49.021591 
	C45.726582,48.321766 45.525040,48.131351 45.262459,48.005543 
	C44.409565,46.659721 43.556671,45.313904 42.297886,43.734871 
	C41.855484,43.331699 41.818970,43.161739 41.909187,42.634739 
	C43.956280,41.325737 45.876644,40.373772 48.290951,39.176949 
	C45.594868,38.122684 43.857895,37.443462 42.120918,36.764244 
z"/>
<path fill="#5FBADE" opacity="1.000000" stroke="none" 
	d="
M58.011597,53.722374 
	C54.533768,54.774693 50.156422,52.108513 46.825531,56.829155 
	C43.959877,57.423626 41.781845,57.739521 39.603809,58.055412 
	C40.508987,55.611607 41.414169,53.167797 42.319347,50.723988 
	C42.393585,51.252956 42.467827,51.781921 42.542068,52.310886 
	C47.337093,52.551048 52.132118,52.791210 57.379326,52.998123 
	C57.873432,53.132759 57.915363,53.300652 58.011597,53.722374 
z"/>
<path fill="#ABD343" opacity="1.000000" stroke="none" 
	d="
M37.314060,26.273964 
	C42.525703,26.140493 47.995152,26.309765 53.754368,26.786102 
	C54.014500,28.130743 53.984863,29.168320 53.500111,30.585377 
	C50.409828,30.651194 47.774670,30.337530 45.139507,30.023867 
	C44.726101,24.244568 39.976353,27.984943 37.314060,26.273964 
z"/>
<path fill="#44D2EA" opacity="1.000000" stroke="none" 
	d="
M40.002865,64.001785 
	C40.332603,65.693016 40.662342,67.384239 40.986832,69.455162 
	C36.629841,69.878914 32.278095,69.922974 27.466614,69.898163 
	C27.006878,69.829285 27.000227,69.424141 27.348988,69.060234 
	C31.747688,66.995789 36.760067,67.817955 40.002865,64.001785 
z"/>
<path fill="#CAE783" opacity="1.000000" stroke="none" 
	d="
M47.397758,50.013760 
	C47.268070,46.464043 48.290035,43.552589 52.724274,42.942741 
	C53.687862,44.418018 54.272869,45.911621 54.830978,47.775368 
	C52.467991,48.788918 50.131897,49.432320 47.397758,50.013760 
z"/>
<path fill="#89C83A" opacity="1.000000" stroke="none" 
	d="
M45.085403,30.455690 
	C47.774670,30.337530 50.409828,30.651194 53.438278,30.969734 
	C53.778900,32.220112 53.726231,33.465611 53.344036,34.901546 
	C50.543377,35.091984 48.072243,35.091984 45.216934,35.091984 
	C45.142883,33.414780 45.087090,32.151150 45.085403,30.455690 
z"/>
<path fill="#52C8E5" opacity="1.000000" stroke="none" 
	d="
M59.602711,16.984676 
	C59.195248,16.759193 59.146732,16.571604 59.023811,16.102093 
	C59.766945,14.619708 60.584484,13.419249 61.681580,12.066915 
	C62.481411,12.863512 63.001686,13.811985 63.827782,14.908537 
	C62.742950,15.711933 61.352303,16.367250 59.602711,16.984676 
z"/>
<path fill="#52C8E5" opacity="1.000000" stroke="none" 
	d="
M69.405060,8.905201 
	C68.000977,9.088553 66.889977,9.143574 65.778976,9.198595 
	C65.616905,8.916365 65.454826,8.634135 65.292747,8.351905 
	C66.905510,7.561152 68.518272,6.770399 70.490311,5.969601 
	C70.465767,6.898660 70.081955,7.837764 69.405060,8.905201 
z"/>
<path fill="#5FBADE" opacity="1.000000" stroke="none" 
	d="
M59.049133,56.621155 
	C58.729500,56.189548 58.372490,55.411999 58.019859,54.284946 
	C58.353409,54.715366 58.682583,55.495285 59.049133,56.621155 
z"/>
<path fill="#52C8E5" opacity="1.000000" stroke="none" 
	d="
M65.296082,14.880361 
	C65.413376,14.265399 65.836311,13.672764 66.554581,13.036145 
	C66.433846,13.629004 66.017792,14.265845 65.296082,14.880361 
z"/>
<path fill="#59CFE9" opacity="1.000000" stroke="none" 
	d="
M8.968649,64.383453 
	C13.151144,63.683434 17.449697,62.660252 21.550671,63.184029 
	C26.760284,63.849400 30.766930,61.933937 35.018257,59.080711 
	C35.492268,59.595329 35.771938,60.437870 35.710907,61.667198 
	C30.247213,63.700344 25.124220,65.346703 19.720570,66.713257 
	C16.749508,66.624161 12.942836,63.493210 12.014966,68.928658 
	C11.008960,67.534920 10.002953,66.141174 8.968649,64.383453 
z"/>
<path fill="#69DDF0" opacity="1.000000" stroke="none" 
	d="
M20.001228,66.993065 
	C25.124220,65.346703 30.247213,63.700344 35.739113,62.010918 
	C36.510113,61.969372 36.912205,61.970886 38.020599,61.979889 
	C39.538483,62.014294 40.350067,62.041210 41.161648,62.068127 
	C40.852077,62.540565 40.542507,63.013004 40.117901,63.743614 
	C36.760067,67.817955 31.747688,66.995789 27.346611,68.857651 
	C24.954498,69.010643 22.913525,69.002312 20.435753,68.651047 
	C19.999714,67.869759 20.000471,67.431412 20.001228,66.993065 
z"/>
<path fill="#68E7F4" opacity="1.000000" stroke="none" 
	d="
M19.720570,66.713257 
	C20.000471,67.431412 19.999714,67.869759 19.998501,68.636185 
	C17.631800,68.968254 15.265550,68.972244 12.457133,68.952446 
	C12.942836,63.493210 16.749508,66.624161 19.720570,66.713257 
z"/>
<path fill="#9BCE39" opacity="1.000000" stroke="none" 
	d="
M42.107826,36.562813 
	C43.857895,37.443462 45.594868,38.122684 48.290951,39.176949 
	C45.876644,40.373772 43.956280,41.325737 41.474739,42.639542 
	C38.496227,43.042107 36.078888,43.082829 33.661552,43.123550 
	C33.075893,41.335808 32.490238,39.548061 31.899574,37.396236 
	C34.956028,36.686085 38.017487,36.340012 41.517624,35.988037 
	C41.956303,35.982136 42.094738,36.361378 42.107826,36.562813 
z"/>
<path fill="#8ECB4B" opacity="1.000000" stroke="none" 
	d="
M33.749058,43.498543 
	C36.078888,43.082829 38.496227,43.042107 41.348007,42.996582 
	C41.818970,43.161739 41.855484,43.331699 41.947361,43.756546 
	C40.666569,47.333130 39.330410,50.654835 37.531063,55.128025 
	C36.072609,50.685165 34.954586,47.279350 33.749058,43.498543 
z"/>
<path fill="#389BCE" opacity="1.000000" stroke="none" 
	d="
M33.538765,52.659096 
	C31.956928,52.992401 30.300131,52.983379 28.224777,52.957432 
	C28.595402,50.438297 29.384588,47.936089 30.615643,44.032867 
	C31.848227,47.617836 32.656017,49.967300 33.538765,52.659096 
z"/>
<path fill="#66CFE9" opacity="1.000000" stroke="none" 
	d="
M41.461296,62.050938 
	C40.350067,62.041210 39.538483,62.014294 38.322460,61.978378 
	C38.366997,60.828865 38.815975,59.688351 39.434380,58.301628 
	C41.781845,57.739521 43.959877,57.423626 46.527210,57.050262 
	C45.699703,58.451557 44.482903,59.910324 43.113033,61.647560 
	C42.560295,61.961937 42.160622,61.997841 41.461296,62.050938 
z"/>
<path fill="#CAE783" opacity="1.000000" stroke="none" 
	d="
M45.299332,48.219490 
	C45.525040,48.131351 45.726582,48.321766 45.927963,48.778877 
	C45.695690,48.888496 45.478146,48.705986 45.299332,48.219490 
z"/>
</svg>