<svg version="1.1" id="Layer_1" xmlns="http://www.w3.org/2000/svg" xmlns:xlink="http://www.w3.org/1999/xlink" x="0px" y="0px" width="100%" viewBox="0 0 673 652" enable-background="new 0 0 673 652" xml:space="preserve">
<path fill="#0077C0" opacity="1.000000" stroke="none" 
	d="
M146.000290,60.166794 
	C159.764465,59.777859 173.528336,59.064003 187.292847,59.051666 
	C292.431610,58.957458 397.570496,58.963974 502.709259,59.046581 
	C515.540894,59.056664 528.702393,60.298923 540.182922,65.524315 
	C548.200806,69.173676 557.597290,71.308533 563.852722,79.018860 
	C568.521729,84.773872 575.096313,88.963951 579.902710,94.630898 
	C587.272705,103.320404 592.269775,113.543694 595.665222,124.424515 
	C597.064148,128.907196 597.986938,133.593063 598.581055,138.255981 
	C599.111023,142.415375 598.985291,146.670502 598.986023,150.883392 
	C599.004028,251.690033 599.013245,352.496674 598.939575,453.303284 
	C598.937195,456.519409 596.847046,460.155762 597.802185,462.866089 
	C600.030518,469.189819 596.191162,474.459534 595.417847,480.049652 
	C594.388000,487.494812 590.622437,495.016083 586.422302,501.454529 
	C581.028992,509.721893 574.623718,517.552124 567.536438,524.416321 
	C562.469055,529.324280 555.734436,532.644287 549.437256,536.117126 
	C540.557251,541.014404 531.210876,545.024475 520.957520,545.871704 
	C512.668274,546.556702 504.329987,546.949097 496.013123,546.954224 
	C384.875916,547.022644 273.738678,547.016846 162.601486,546.926392 
	C158.912338,546.923340 155.239792,545.662048 151.528839,545.320984 
	C149.653381,545.148621 147.709213,545.723999 145.241180,545.582764 
	C141.513992,544.038086 138.408188,542.619446 135.154434,541.762695 
	C129.805344,540.354309 124.360359,539.310059 118.955795,538.112366 
	C109.595779,534.336548 101.222786,529.223511 94.686630,521.283325 
	C90.967072,516.764771 86.374245,512.945190 82.815659,508.317963 
	C74.885880,498.006866 70.348221,486.001282 67.372444,473.492157 
	C66.166740,468.423767 66.056572,463.009949 66.052948,457.752930 
	C65.981911,354.539825 65.993111,251.326675 66.043037,148.113541 
	C66.044205,145.691422 66.684830,143.269608 67.387512,140.240692 
	C68.572922,137.882385 69.763924,136.211029 70.166992,134.367386 
	C74.657745,113.827087 83.929497,96.090393 100.711800,82.951683 
	C106.816048,78.172707 113.120377,73.323708 120.056053,70.026863 
	C126.564522,66.933083 134.073578,65.992691 141.038681,63.778633 
	C142.888351,63.190655 144.356812,61.403400 146.000290,60.166794 
z"/>
</svg>